<svg width="40" height="40" viewBox="0 0 40 40" fill="none" xmlns="http://www.w3.org/2000/svg">
<rect width="40" height="40" rx="8" fill="#E5EFEF"/>
<path d="M29 12.5H11C10.6022 12.5 10.2206 12.658 9.93934 12.9393C9.65804 13.2206 9.5 13.6022 9.5 14V26C9.5 26.3978 9.65804 26.7794 9.93934 27.0607C10.2206 27.342 10.6022 27.5 11 27.5H29C29.3978 27.5 29.7794 27.342 30.0607 27.0607C30.342 26.7794 30.5 26.3978 30.5 26V14C30.5 13.6022 30.342 13.2206 30.0607 12.9393C29.7794 12.658 29.3978 12.5 29 12.5ZM27.35 14L20 19.085L12.65 14H27.35ZM11 26V14.6825L19.5725 20.615C19.698 20.7021 19.8472 20.7488 20 20.7488C20.1528 20.7488 20.302 20.7021 20.4275 20.615L29 14.6825V26H11Z" fill="#005F61"/>
</svg>
