<svg width="40" height="40" viewBox="0 0 40 40" fill="none" xmlns="http://www.w3.org/2000/svg">
<rect width="40" height="40" rx="8" fill="#E5EFEF"/>
<path d="M27.5001 29.75H27.3726C12.6351 28.9025 10.5426 16.4675 10.2501 12.6725C10.2265 12.3774 10.2614 12.0806 10.3527 11.7991C10.4441 11.5175 10.5901 11.2567 10.7824 11.0317C10.9746 10.8067 11.2095 10.6218 11.4733 10.4876C11.7372 10.3535 12.0249 10.2727 12.3201 10.25H16.4526C16.753 10.2497 17.0466 10.3396 17.2953 10.5081C17.544 10.6766 17.7364 10.9159 17.8476 11.195L18.9876 14C19.0973 14.2727 19.1246 14.5716 19.0659 14.8596C19.0072 15.1476 18.8652 15.412 18.6576 15.62L17.0601 17.2325C17.3096 18.6506 17.9887 19.9578 19.0055 20.9772C20.0223 21.9967 21.3277 22.6792 22.7451 22.9325L24.3726 21.32C24.5837 21.1146 24.8506 20.9759 25.14 20.9213C25.4294 20.8666 25.7286 20.8983 26.0001 21.0125L28.8276 22.145C29.1025 22.2597 29.337 22.4536 29.5013 22.702C29.6656 22.9504 29.7522 23.2422 29.7501 23.54V27.5C29.7501 28.0967 29.513 28.669 29.0911 29.091C28.6691 29.5129 28.0968 29.75 27.5001 29.75ZM12.5001 11.75C12.3012 11.75 12.1104 11.829 11.9697 11.9697C11.8291 12.1103 11.7501 12.3011 11.7501 12.5V12.56C12.0951 17 14.3076 27.5 27.4551 28.25C27.5536 28.2561 27.6524 28.2427 27.7457 28.2105C27.839 28.1783 27.9251 28.1281 27.9989 28.0626C28.0728 27.9971 28.133 27.9176 28.1761 27.8288C28.2192 27.74 28.2443 27.6436 28.2501 27.545V23.54L25.4226 22.4075L23.2701 24.545L22.9101 24.5C16.3851 23.6825 15.5001 17.1575 15.5001 17.09L15.4551 16.73L17.5851 14.5775L16.4601 11.75H12.5001Z" fill="#005F61"/>
</svg>
