<svg width="36" height="36" viewBox="0 0 36 36" fill="none" xmlns="http://www.w3.org/2000/svg">
<circle cx="18" cy="18.0001" r="17.5" fill="#E8E8E8" stroke="#CECECE"/>
<path d="M18 10.1251C18.8344 10.1251 19.65 10.3725 20.3438 10.8361C21.0376 11.2997 21.5783 11.9586 21.8976 12.7294C22.2169 13.5003 22.3005 14.3486 22.1377 15.1669C21.9749 15.9853 21.5731 16.737 20.9831 17.327C20.3931 17.917 19.6414 18.3188 18.823 18.4816C18.0047 18.6443 17.1564 18.5608 16.3856 18.2415C15.6147 17.9222 14.9558 17.3815 14.4922 16.6877C14.0287 15.9939 13.7813 15.1783 13.7813 14.3439C13.7813 13.225 14.2257 12.1519 15.0169 11.3608C15.8081 10.5696 16.8811 10.1251 18 10.1251ZM18 8.43762C16.8319 8.43762 15.6899 8.78402 14.7187 9.433C13.7474 10.082 12.9904 11.0044 12.5433 12.0836C12.0963 13.1629 11.9793 14.3504 12.2072 15.4961C12.4351 16.6418 12.9976 17.6942 13.8237 18.5202C14.6497 19.3462 15.7021 19.9087 16.8478 20.1366C17.9935 20.3645 19.181 20.2476 20.2602 19.8005C21.3395 19.3535 22.2619 18.5965 22.9109 17.6252C23.5599 16.6539 23.9063 15.512 23.9063 14.3439C23.9063 12.7774 23.284 11.2752 22.1764 10.1675C21.0687 9.05989 19.5664 8.43762 18 8.43762Z" fill="#3A3A3A"/>
<path d="M26.4375 32.0626H24.75V27.8439C24.75 27.2899 24.6409 26.7413 24.4289 26.2294C24.2169 25.7176 23.9061 25.2525 23.5144 24.8608C23.1226 24.469 22.6575 24.1583 22.1457 23.9463C21.6339 23.7342 21.0853 23.6251 20.5312 23.6251H15.4688C14.3499 23.6251 13.2768 24.0696 12.4856 24.8608C11.6945 25.6519 11.25 26.725 11.25 27.8439V32.0626H9.5625V27.8439C9.5625 26.2774 10.1848 24.7752 11.2924 23.6675C12.4 22.5599 13.9023 21.9376 15.4688 21.9376H20.5312C22.0977 21.9376 23.6 22.5599 24.7076 23.6675C25.8152 24.7752 26.4375 26.2774 26.4375 27.8439V32.0626Z" fill="#3A3A3A"/>
</svg>
