<svg width="32" height="32" viewBox="0 0 32 32" fill="none" xmlns="http://www.w3.org/2000/svg">
<path d="M29.263 12.2388C29.1792 11.992 29.025 11.7751 28.8193 11.6149C28.6136 11.4547 28.3655 11.3583 28.1057 11.3375L20.5044 10.7335L17.215 3.45214C17.1103 3.21762 16.9399 3.01844 16.7244 2.87862C16.509 2.7388 16.2576 2.66433 16.0008 2.66418C15.7439 2.66404 15.4925 2.73824 15.2769 2.87782C15.0613 3.01741 14.8907 3.21641 14.7857 3.45081L11.4964 10.7335L3.89503 11.3375C3.63963 11.3577 3.39548 11.4511 3.19177 11.6064C2.98806 11.7618 2.83342 11.9726 2.74635 12.2135C2.65929 12.4545 2.64348 12.7154 2.70082 12.9651C2.75816 13.2148 2.88623 13.4427 3.06969 13.6215L8.68703 19.0975L6.70036 27.7001C6.64004 27.9605 6.65937 28.2331 6.75585 28.4823C6.85234 28.7316 7.02151 28.9461 7.24143 29.0981C7.46135 29.25 7.72185 29.3323 7.98914 29.3343C8.25643 29.3364 8.51815 29.258 8.74036 29.1095L16.0004 24.2695L23.2604 29.1095C23.4875 29.2603 23.7553 29.3379 24.0279 29.3319C24.3004 29.3259 24.5646 29.2366 24.7849 29.076C25.0052 28.9154 25.171 28.6912 25.2601 28.4336C25.3491 28.1759 25.3571 27.8972 25.283 27.6348L22.8444 19.1015L28.8924 13.6588C29.2884 13.3015 29.4337 12.7441 29.263 12.2388Z" fill="#F9A21B"/>
</svg>
