<svg width="1920" height="103" viewBox="0 0 1920 103" fill="none" xmlns="http://www.w3.org/2000/svg">
<mask id="mask0" mask-type="alpha" maskUnits="userSpaceOnUse" x="0" y="0" width="1920" height="103">
<path d="M0 0H1920V23C1920 67.1828 1884.18 103 1840 103H0V0Z" fill="#005F61"/>
</mask>
<g mask="url(#mask0)">
<path d="M1812.86 3H1920V103H1812.86H1280.34H650.667L650.667 68C907.199 77.6685 1067.65 28 1280.34 15.5C1493.02 3 1707.31 3 1812.86 3Z" fill="#FFC36A"/>
<path fill-rule="evenodd" clip-rule="evenodd" d="M1920 33H1812.8C1707.2 33 1492.8 33 1280 41.75C1067.2 50.5 852.8 68 640 68C427.2 68 212.8 50.5 107.2 41.75L-5.72205e-05 33V103H107.2C212.8 103 427.2 103 640 103C852.8 103 1067.2 103 1280 103C1492.8 103 1707.2 103 1812.8 103H1920V33Z" fill="#323843"/>
<path d="M0 53L107.2 53C212.8 53 427.2 53 640 61.75C852.8 70.5 1067.2 88.0001 1280 88C1492.8 88 1707.2 70.5 1812.8 61.7499L1920 52.9999" stroke="#C09250" stroke-width="2"/>
</g>
</svg>
