<svg width="375" height="60" viewBox="0 0 375 60" fill="none" xmlns="http://www.w3.org/2000/svg">
<mask id="mask0" mask-type="alpha" maskUnits="userSpaceOnUse" x="0" y="0" width="375" height="60">
<path d="M0 0H375C375 33.1371 348.137 60 315 60H0V0Z" fill="#005F61"/>
</mask>
<g mask="url(#mask0)">
<path d="M354.073 8H375V58H354.073H250.066H127.083L127.083 40.5C177.187 45.3343 208.525 20.5 250.066 14.25C291.606 8 333.459 8 354.073 8Z" fill="#FFC36A"/>
<path fill-rule="evenodd" clip-rule="evenodd" d="M375 20H354.062C333.438 20 291.562 20 250 25C208.438 30 166.562 40 125 40C83.4375 40 41.5625 30 20.9375 25L0 20V60H20.9375C41.5625 60 83.4375 60 125 60C166.562 60 208.438 60 250 60C291.562 60 333.438 60 354.062 60H375V20Z" fill="#323843"/>
<path d="M0 27L20.9375 27C41.5625 27 83.4375 27 125 33.25C166.563 39.4999 208.438 51.9999 250 51.9999C291.563 51.9999 333.438 39.4999 354.063 33.2499L375 26.9999" stroke="#C09250" stroke-width="2"/>
</g>
</svg>
